# xmcd CD database file
#
# Track frame offsets:
#	150
#	10820
#	22612
#	33532
#	42145
#	53902
#	66632
#	76820
#	89165
#	102007
#	115285
#	128842
#	141310
#	160722
#	172575
#	186882
#	196507
#	208997
#
# Disc length: 2970 seconds
#
# Revision: 3
# Processed by: cddbd v1.5.2PL0 Copyright (c) Steve Scherf et al.
# Submitted via: CDex 1.51
#
DISCID=ea0b9812
DTITLE=Billie Jo Spears - The Best Of
DYEAR=2002
DGENRE=Country
TTITLE0=I'm So Lonesome I Could Cry
TTITLE1=Look What They've Done To My Song Ma
TTITLE2=If It Ain't Love
TTITLE3=You're My Man
TTITLE4=Ease The Want In Me
TTITLE5=Dallas
TTITLE6=It Makes No Difference Now
TTITLE7=Sunshine
TTITLE8=He's On The Run Again
TTITLE9=Fever
TTITLE10=One More Chance
TTITLE11=The Cheatin' Kind
TTITLE12=I'll Take A Melody
TTITLE13=My Own Kind
TTITLE14=I'll Never Be Free
TTITLE15=Danny
TTITLE16=You Got The Power
TTITLE17=Mr Walker, It's All Over
EXTD=YEAR: 2002
EXTT0=
EXTT1=
EXTT2=
EXTT3=
EXTT4=
EXTT5=
EXTT6=
EXTT7=
EXTT8=
EXTT9=
EXTT10=
EXTT11=
EXTT12=
EXTT13=
EXTT14=
EXTT15=
EXTT16=
EXTT17=
PLAYORDER=
